
<!-- Generator: visioncortex VTracer 0.6.4 -->
<svg version="1.1" xmlns="http://www.w3.org/2000/svg" viewBox="0 0 1408 768" preserveAspectRatio="xMidYMid meet">
<path d="M0 0 C464.64 0 929.28 0 1408 0 C1408 253.44 1408 506.88 1408 768 C943.36 768 478.72 768 0 768 C0 514.56 0 261.12 0 0 Z " fill="#1F1F1E" transform="translate(0,0)"/>
<path d="M0 0 C464.64 0 929.28 0 1408 0 C1408 53.79 1408 107.58 1408 163 C943.36 163 478.72 163 0 163 C0 109.21 0 55.42 0 0 Z " fill="#1F1F1D" transform="translate(0,605)"/>
<path d="M0 0 C464.64 0 929.28 0 1408 0 C1408 53.46 1408 106.92 1408 162 C943.36 162 478.72 162 0 162 C0 108.54 0 55.08 0 0 Z " fill="#1F1F1D" transform="translate(0,0)"/>
<path d="M0 0 C49.169 0 49.169 0 59 8 C63.594 13.134 65.348 19.438 67 26 C67.174 26.582 67.348 27.164 67.527 27.764 C68.121 30.574 68.135 33.205 68.145 36.079 C68.152 37.307 68.158 38.536 68.165 39.802 C68.166 41.141 68.167 42.481 68.168 43.82 C68.171 45.203 68.175 46.586 68.178 47.969 C68.184 50.869 68.186 53.769 68.185 56.669 C68.185 60.361 68.199 64.052 68.216 67.743 C68.227 70.602 68.229 73.461 68.229 76.32 C68.23 78.334 68.241 80.349 68.252 82.364 C68.22 95.373 65.991 104.682 59.312 115.812 C52.093 122.642 42.046 125.261 32.344 125.23 C31.638 125.23 30.932 125.23 30.204 125.229 C28.722 125.226 27.24 125.218 25.757 125.206 C23.506 125.188 21.255 125.185 19.004 125.186 C12.536 125.164 6.435 124.919 0 124 C0 83.08 0 42.16 0 0 Z " fill="#F8F7F6" transform="translate(1040,325)"/>
<path d="M0 0 C7.59 0 15.18 0 23 0 C25.753 10.89 28.385 21.797 30.875 32.75 C31.13 33.869 31.13 33.869 31.389 35.01 C32.601 40.339 33.802 45.669 35 51 C35.159 51.706 35.318 52.412 35.482 53.139 C36.501 57.673 37.505 62.21 38.5 66.75 C38.755 67.89 39.01 69.031 39.273 70.206 C40.436 75.583 41.315 80.496 41 86 C41.66 86 42.32 86 43 86 C43.031 85.248 43.062 84.496 43.094 83.721 C43.619 74.533 45.415 65.851 47.562 56.938 C48.102 54.653 48.637 52.367 49.173 50.081 C49.544 48.499 49.916 46.917 50.289 45.335 C51.663 39.493 52.982 33.641 54.273 27.781 C54.456 26.952 54.639 26.123 54.827 25.269 C55.541 22.026 56.253 18.783 56.962 15.539 C57.45 13.305 57.942 11.072 58.434 8.84 C58.713 7.565 58.992 6.29 59.279 4.976 C60 2 60 2 61 0 C68.59 0 76.18 0 84 0 C84.649 13.774 85.281 27.548 85.883 41.324 C85.955 42.977 86.028 44.629 86.102 46.281 C87.253 72.181 87.103 98.081 87 124 C81.06 124 75.12 124 69 124 C68.097 114.039 67.867 104.188 67.902 94.199 C67.904 92.626 67.906 91.053 67.907 89.479 C67.91 85.384 67.92 81.289 67.931 77.194 C67.942 72.997 67.946 68.801 67.951 64.604 C67.962 56.402 67.979 48.201 68 40 C67.34 40 66.68 40 66 40 C65.905 40.657 65.81 41.313 65.712 41.99 C61.663 69.736 55.751 96.811 49 124 C44.38 124 39.76 124 35 124 C33.488 118.862 32.181 113.706 30.977 108.488 C30.79 107.686 30.604 106.884 30.412 106.057 C29.814 103.476 29.219 100.894 28.625 98.312 C28.322 96.996 28.322 96.996 28.012 95.652 C20.624 63.548 20.624 63.548 18.395 47.336 C18.115 44.986 18.115 44.986 17 43 C16.99 43.912 16.979 44.823 16.969 45.762 C16.871 54.369 16.768 62.976 16.661 71.583 C16.606 76.007 16.552 80.431 16.503 84.856 C16.455 89.129 16.402 93.402 16.347 97.674 C16.327 99.301 16.308 100.928 16.291 102.555 C16.267 104.841 16.237 107.127 16.205 109.412 C16.19 110.711 16.174 112.01 16.158 113.349 C16 117 16 117 15 124 C9.06 124 3.12 124 -3 124 C-3.046 114.095 -3.082 104.19 -3.104 94.286 C-3.114 89.682 -3.128 85.078 -3.151 80.474 C-3.247 60.832 -3.108 41.251 -2.055 21.633 C-2.011 20.818 -1.968 20.003 -1.923 19.163 C-1.209 6.043 -1.209 6.043 0 0 Z " fill="#F7F6F5" transform="translate(871,325)"/>
<path d="M0 0 C5.94 0 11.88 0 18 0 C36.114 41.171 36.114 41.171 41.562 53.812 C41.913 54.62 42.264 55.428 42.625 56.26 C44.006 59.481 45.212 62.587 46 66 C46.038 64.173 46.038 64.173 46.076 62.31 C46.964 19.537 46.964 19.537 48 0 C53.94 0 59.88 0 66 0 C66 40.92 66 81.84 66 124 C61.05 124 56.1 124 51 124 C44.527 111.618 39.316 98.945 34 86 C30.04 76.43 26.08 66.86 22 57 C21.34 79.11 20.68 101.22 20 124 C13.4 124 6.8 124 0 124 C0 83.08 0 42.16 0 0 Z " fill="#F8F7F6" transform="translate(595,325)"/>
<path d="M0 0 C7.26 0 14.52 0 22 0 C22.66 15.51 23.32 31.02 24 47 C33.769 26.777 33.769 26.777 43.371 6.475 C45.893 1.107 45.893 1.107 47 0 C48.562 -0.087 50.127 -0.107 51.691 -0.098 C52.636 -0.094 53.58 -0.091 54.553 -0.088 C55.546 -0.08 56.539 -0.071 57.562 -0.062 C58.56 -0.058 59.557 -0.053 60.584 -0.049 C63.056 -0.037 65.528 -0.021 68 0 C65.536 8.059 62.785 15.804 59.23 23.445 C58.738 24.512 58.738 24.512 58.235 25.6 C56.884 28.513 55.525 31.422 54.134 34.317 C48.485 46.127 45.459 55.462 50.02 68.41 C50.929 70.637 51.861 72.854 52.812 75.062 C53.559 76.88 54.305 78.697 55.05 80.515 C55.826 82.4 56.611 84.281 57.399 86.162 C59.552 91.308 61.643 96.479 63.708 101.662 C64.676 104.092 65.655 106.517 66.646 108.938 C67.306 110.589 67.306 110.589 67.98 112.273 C68.371 113.237 68.762 114.2 69.165 115.193 C70 118 70 118 70 124 C62.74 124 55.48 124 48 124 C42.178 109.881 36.411 95.776 31.242 81.402 C30.142 78.19 30.142 78.19 29 76 C28.96 74 28.957 72 29 70 C27.515 70.495 27.515 70.495 26 71 C22.896 77.399 22.538 84.397 22.488 91.383 C22.47 92.323 22.452 93.263 22.434 94.232 C22.38 97.196 22.346 100.16 22.312 103.125 C22.279 105.151 22.245 107.177 22.209 109.203 C22.122 114.135 22.062 119.067 22 124 C14.74 124 7.48 124 0 124 C0 83.08 0 42.16 0 0 Z " fill="#F9F8F7" transform="translate(679,325)"/>
<path d="M0 0 C7.92 0 15.84 0 24 0 C25.338 3.345 26.285 5.807 26.942 9.207 C27.1 10.008 27.258 10.81 27.42 11.636 C27.584 12.496 27.749 13.356 27.918 14.242 C28.285 16.116 28.653 17.991 29.02 19.865 C29.211 20.846 29.401 21.826 29.597 22.836 C32.67 38.651 35.906 54.405 39.535 70.102 C42.424 82.669 44.913 95.305 47.385 107.96 C47.936 110.686 48.538 113.393 49.168 116.102 C50 120 50 120 50 124 C43.07 124 36.14 124 29 124 C25.274 114.188 24.006 105.392 23 95 C15.41 95 7.82 95 0 95 C0 97.31 0 99.62 0 102 C-0.24 103.84 -0.53 105.673 -0.875 107.496 C-1.055 108.466 -1.236 109.436 -1.422 110.436 C-1.708 111.922 -1.708 111.922 -2 113.438 C-2.286 114.964 -2.286 114.964 -2.578 116.521 C-3.046 119.015 -3.522 121.508 -4 124 C-10.93 124 -17.86 124 -25 124 C-24.444 113.792 -22.831 104.161 -20.75 94.188 C-20.43 92.626 -20.111 91.065 -19.793 89.503 C-18.873 85 -17.939 80.499 -17 76 C-16.762 74.859 -16.524 73.719 -16.279 72.543 C-14.633 64.674 -14.633 64.674 -13.843 60.943 C-12.683 55.434 -11.598 49.914 -10.57 44.379 C-7.765 29.319 -4.496 14.664 0 0 Z " fill="#F9F9F8" transform="translate(1184,325)"/>
<path d="M0 0 C50.85 0 50.85 0 59.562 8.5 C67.991 19.664 68.588 32.519 67 46 C65.899 50.457 64.391 54.095 62 58 C61.34 59.134 60.68 60.269 60 61.438 C48.988 70.844 35.615 69.596 22 69 C22.006 70.077 22.012 71.155 22.018 72.265 C22.059 83.561 21.844 94.835 21.5 106.125 C21.452 107.777 21.403 109.43 21.355 111.082 C21.24 115.055 21.12 119.027 21 123 C14.07 123 7.14 123 0 123 C0 82.41 0 41.82 0 0 Z " fill="#F9F9F8" transform="translate(476,325)"/>
<path d="M0 0 C7.152 4.995 11.398 13.519 13 22 C13.065 23.582 13.086 25.167 13.062 26.75 C13.053 27.549 13.044 28.348 13.035 29.172 C13.024 29.775 13.012 30.378 13 31 C10.982 31.51 8.96 32.007 6.938 32.5 C5.812 32.778 4.687 33.057 3.527 33.344 C-0.065 34.012 -3.355 34.111 -7 34 C-7.17 32.964 -7.34 31.927 -7.516 30.859 C-7.76 29.489 -8.004 28.12 -8.25 26.75 C-8.36 26.068 -8.469 25.386 -8.582 24.684 C-9.165 21.524 -9.86 19.199 -11.719 16.562 C-14.647 14.557 -16.725 14.403 -20.25 14.25 C-21.328 14.193 -22.405 14.137 -23.516 14.078 C-24.335 14.052 -25.155 14.027 -26 14 C-28.904 24.119 -28.904 24.119 -26.938 34.062 C-25.411 36.186 -23.781 38.085 -22 40 C-21.408 40.647 -20.817 41.294 -20.207 41.961 C-15.757 46.603 -10.874 50.608 -5.879 54.645 C12.742 69.879 12.742 69.879 14 82 C15.409 104.975 15.409 104.975 8.457 114.004 C2.609 120.414 -4.382 123.687 -13.016 124.168 C-23.359 124.23 -31.677 123.589 -40 117 C-48.677 108.126 -50.137 99.428 -50.035 87.414 C-50.018 86.219 -50.018 86.219 -50 85 C-43.213 82.184 -37.311 81.631 -30 82 C-29.818 82.929 -29.636 83.859 -29.449 84.816 C-27.615 94.211 -27.615 94.211 -24 103 C-21.355 104.322 -19.322 104.097 -16.375 104.062 C-15.372 104.053 -14.369 104.044 -13.336 104.035 C-12.565 104.024 -11.794 104.012 -11 104 C-7.664 98.552 -8.242 92.135 -9 86 C-10.44 82.427 -12.425 79.841 -15 77 C-15.557 76.361 -16.114 75.721 -16.688 75.062 C-20.712 70.76 -25.236 67.167 -29.875 63.562 C-48.444 49.131 -48.444 49.131 -50 41 C-50.189 40.041 -50.189 40.041 -50.383 39.062 C-50.731 36.702 -50.878 34.384 -51 32 C-51.088 30.742 -51.175 29.484 -51.266 28.188 C-51.64 20.755 -51.616 14.785 -46.695 8.754 C-34.397 -3.969 -16.175 -8.837 0 0 Z " fill="#F7F6F5" transform="translate(806,327)"/>
<path d="M0 0 C6.255 5.526 9.646 14.46 10.809 22.598 C10.847 24.931 10.854 27.265 10.809 29.598 C8.414 30.104 6.018 30.603 3.621 31.098 C2.948 31.241 2.274 31.384 1.58 31.531 C-2.067 32.278 -5.468 32.771 -9.191 32.598 C-9.434 31.561 -9.676 30.525 -9.926 29.457 C-10.264 28.087 -10.602 26.717 -10.941 25.348 C-11.099 24.666 -11.256 23.984 -11.418 23.281 C-12.499 19 -13.571 16.221 -17.191 13.598 C-20.281 12.809 -23.075 12.963 -26.191 13.598 C-29.13 15.748 -29.979 17.295 -30.562 20.875 C-30.943 28.365 -29.027 33.291 -24.191 38.93 C-19.521 43.808 -14.494 47.97 -9.129 52.035 C0.201 59.142 10.717 69.508 12.809 81.598 C13.944 102.802 13.944 102.802 6.621 111.848 C0.288 118.54 -7.001 122.475 -16.348 122.898 C-17.796 122.913 -19.243 122.917 -20.691 122.91 C-21.412 122.926 -22.133 122.942 -22.875 122.959 C-30.887 122.966 -36.529 119.898 -42.336 114.551 C-50.547 105.907 -53.388 95.22 -53.191 83.598 C-46.116 80.596 -39.821 80.249 -32.191 80.598 C-32.093 81.359 -31.995 82.121 -31.895 82.906 C-30.931 89.561 -29.728 95.782 -26.191 101.598 C-23.892 102.748 -22.377 102.829 -19.816 102.91 C-19.046 102.948 -18.275 102.985 -17.48 103.023 C-14.249 102.422 -13.137 101.21 -11.191 98.598 C-10.559 95.834 -10.559 95.834 -10.691 92.848 C-10.681 91.863 -10.671 90.878 -10.66 89.863 C-12.052 81.31 -17.197 76.006 -23.254 70.16 C-24.01 69.415 -24.767 68.67 -25.546 67.903 C-30.467 63.109 -35.555 58.755 -40.953 54.512 C-44.323 51.63 -46.906 48.385 -49.191 44.598 C-49.996 43.343 -49.996 43.343 -50.816 42.062 C-52.772 37.135 -52.705 32.602 -52.691 27.348 C-52.72 26.362 -52.748 25.375 -52.777 24.359 C-52.8 15.741 -50.332 9.302 -44.754 2.723 C-32.172 -7.711 -14.143 -9.051 0 0 Z " fill="#F8F7F6" transform="translate(450.19140625,328.40234375)"/>
<path d="M0 0 C17.16 0 34.32 0 52 0 C52 5.28 52 10.56 52 16 C42.1 16 32.2 16 22 16 C22 27.55 22 39.1 22 51 C30.25 51 38.5 51 47 51 C47 56.28 47 61.56 47 67 C38.75 67 30.5 67 22 67 C22 80.53 22 94.06 22 108 C32.23 108 42.46 108 53 108 C53 113.28 53 118.56 53 124 C35.51 124 18.02 124 0 124 C0 83.08 0 42.16 0 0 Z " fill="#F5F4F3" transform="translate(975,325)"/>
<path d="M0 0 C1.31 -0.049 2.619 -0.098 3.969 -0.148 C7.5 0.375 7.5 0.375 9.68 2.383 C11.93 6.082 14.071 9.814 16.125 13.625 C20.064 20.85 24.155 27.961 28.452 34.979 C31.5 40.05 31.5 40.05 31.5 43.375 C-1.5 43.375 -34.5 43.375 -68.5 43.375 C-58.895 24.164 -40.325 11.01 -20.302 4.093 C-17.383 3.131 -14.452 2.229 -11.5 1.375 C-10.854 1.175 -10.208 0.975 -9.543 0.77 C-6.362 0.155 -3.235 0.083 0 0 Z " fill="#FAFAF9" transform="translate(259.5,289.625)"/>
<path d="M0 0 C1.5 -0.055 3 -0.093 4.5 -0.125 C5.335 -0.148 6.171 -0.171 7.031 -0.195 C25.653 1.03 43.294 11.899 56.344 24.469 C58.46 26.485 60.586 28.318 62.875 30.125 C66.69 33.395 70.198 37.276 72 42 C71.853 48.247 70.128 52.405 66.938 57.688 C66.537 58.374 66.137 59.061 65.724 59.769 C64.5 61.857 63.255 63.931 62 66 C61.623 66.622 61.246 67.245 60.857 67.886 C59.164 70.668 57.453 73.439 55.73 76.203 C53.736 79.426 51.847 82.691 50 86 C47.322 85.652 46.269 85.342 44.571 83.181 C44.14 82.395 43.71 81.61 43.266 80.801 C42.778 79.929 42.291 79.057 41.789 78.159 C41.027 76.75 41.027 76.75 40.25 75.312 C39.171 73.368 38.091 71.424 37.012 69.48 C36.491 68.532 35.971 67.584 35.435 66.607 C33.682 63.423 31.879 60.273 30.062 57.125 C27.147 52.025 24.256 46.912 21.37 41.795 C16.555 33.259 11.72 24.734 6.812 16.25 C6.126 15.062 6.126 15.062 5.427 13.851 C5.003 13.121 4.58 12.392 4.145 11.641 C3.593 10.69 3.593 10.69 3.031 9.72 C2.07 8.116 1.037 6.556 0 5 C-0.125 2.312 -0.125 2.312 0 0 Z " fill="#F8F7F6" transform="translate(278,291)"/>
<path d="M0 0 C1.891 0.172 1.891 0.172 4 1 C5.425 2.828 5.425 2.828 6.742 5.25 C7.244 6.156 7.746 7.062 8.262 7.996 C8.795 8.987 9.327 9.979 9.875 11 C10.439 12.024 11.002 13.047 11.583 14.102 C12.784 16.282 13.979 18.464 15.169 20.649 C18.136 26.08 21.163 31.477 24.188 36.875 C24.775 37.927 25.362 38.979 25.967 40.062 C29.339 46.089 32.778 52.068 36.312 58 C39.727 63.739 42.984 69.545 46.125 75.438 C46.516 76.166 46.907 76.895 47.31 77.646 C50 82.754 50 82.754 50 85 C26.771 86.369 8.01 74.403 -8.812 59.684 C-10.087 58.543 -11.357 57.398 -12.625 56.25 C-13.217 55.719 -13.81 55.189 -14.42 54.642 C-18.823 50.547 -21.488 46.896 -22.562 40.82 C-21.719 35.095 -18.936 30.799 -16 25.875 C-15.114 24.351 -15.114 24.351 -14.21 22.796 C-12.491 19.853 -10.751 16.924 -9 14 C-8.315 12.852 -8.315 12.852 -7.615 11.682 C-1.516 1.516 -1.516 1.516 0 0 Z " fill="#F8F7F6" transform="translate(211,395)"/>
<path d="M0 0 C7.59 0 15.18 0 23 0 C23 40.92 23 81.84 23 124 C15.41 124 7.82 124 0 124 C0 83.08 0 42.16 0 0 Z " fill="#F2F2F1" transform="translate(1124,325)"/>
<path d="M0 0 C33 0 66 0 100 0 C96.168 6.706 92.225 11.461 87 17 C86.444 17.632 85.889 18.263 85.316 18.914 C73.604 31.707 52.211 40.748 35 42 C34.086 42.179 33.172 42.358 32.23 42.543 C28.741 42.986 26.381 43.013 23 42 C19.569 38.475 17.402 34.541 15.146 30.196 C13.933 27.871 12.657 25.59 11.363 23.309 C9.247 19.567 7.171 15.806 5.123 12.028 C4.024 10.043 2.869 8.1 1.707 6.152 C0 3 0 3 0 0 Z " fill="#FAFAF9" transform="translate(248,439)"/>
<path d="M0 0 C4.68 3.677 6.148 8.55 8 14 C8.303 14.829 8.606 15.658 8.918 16.512 C15.841 38.776 10.166 65.668 0 86 C-15.84 86 -31.68 86 -48 86 C-46.874 80.369 -46.874 80.369 -45.25 77.32 C-44.894 76.648 -44.538 75.975 -44.171 75.281 C-43.785 74.57 -43.398 73.858 -43 73.125 C-42.391 71.991 -42.391 71.991 -41.77 70.834 C-38.914 65.562 -35.912 60.402 -32.79 55.284 C-29.003 49.063 -25.378 42.752 -21.75 36.438 C-16.75 27.746 -11.721 19.073 -6.625 10.438 C-6.072 9.498 -5.518 8.558 -4.948 7.59 C-4.189 6.306 -4.189 6.306 -3.414 4.996 C-2.97 4.245 -2.526 3.494 -2.069 2.72 C-1 1 -1 1 0 0 Z " fill="#F7F7F6" transform="translate(354,345)"/>
<path d="M0 0 C0.85 0.002 1.701 0.004 2.577 0.007 C4.019 0.007 4.019 0.007 5.489 0.007 C7.056 0.015 7.056 0.015 8.655 0.023 C9.719 0.024 10.783 0.025 11.879 0.027 C15.293 0.033 18.706 0.045 22.12 0.058 C24.428 0.063 26.736 0.067 29.044 0.071 C34.715 0.082 40.386 0.099 46.057 0.12 C44.952 3.58 43.812 6.867 42.132 10.089 C41.565 11.176 41.565 11.176 40.988 12.284 C40.578 13.055 40.167 13.826 39.745 14.62 C39.309 15.443 38.873 16.267 38.424 17.115 C32.965 27.309 27.016 37.213 21.057 47.12 C19.498 49.72 17.938 52.32 16.379 54.92 C15.383 56.578 14.385 58.235 13.384 59.891 C10.943 63.936 8.546 67.997 6.225 72.112 C5.775 72.904 5.325 73.695 4.861 74.51 C4.014 76.002 3.178 77.501 2.354 79.006 C-0.473 83.967 -0.473 83.967 -3.077 84.815 C-3.693 84.916 -4.308 85.016 -4.943 85.12 C-15.221 57.549 -16.308 30.467 -3.958 3.069 C-2.437 0.151 -2.437 0.151 0 0 Z " fill="#F9F9F8" transform="translate(186.94252014160156,340.87974548339844)"/>
<path d="M0 0 C7.26 0 14.52 0 22 0 C22 40.92 22 81.84 22 124 C14.74 124 7.48 124 0 124 C0 83.08 0 42.16 0 0 Z " fill="#F7F6F5" transform="translate(556,325)"/>
<path d="M0 0 C15 0 15 0 18.75 2.062 C24.798 9.958 24.46 17.333 24.434 26.988 C24.438 28.456 24.443 29.925 24.449 31.393 C24.458 34.463 24.456 37.534 24.446 40.604 C24.435 44.515 24.455 48.424 24.484 52.334 C24.502 55.365 24.502 58.396 24.496 61.428 C24.496 62.868 24.502 64.308 24.515 65.749 C24.638 82.316 24.638 82.316 20 89 C15 92 15 92 0 92 C0 61.64 0 31.28 0 0 Z " fill="#242423" transform="translate(1062,341)"/>
<path d="M0 0 C7.585 1.84 13.458 4.82 20 9 C22.386 10.474 24.785 11.927 27.188 13.375 C27.816 13.755 28.444 14.135 29.091 14.526 C34.377 17.693 39.776 20.615 45.253 23.437 C47.838 24.78 49.926 25.926 52 28 C52.688 30.75 52.688 30.75 52 34 C49.398 36.594 46.189 38.219 43 40 C42.367 40.356 41.733 40.712 41.081 41.078 C37.335 43.179 33.577 45.257 29.812 47.324 C23.559 50.776 17.423 54.421 11.281 58.066 C6.668 60.785 4.384 61.1 -1 61 C-2.028 57.916 -2.133 55.782 -2.145 52.551 C-2.152 51.436 -2.158 50.322 -2.165 49.173 C-2.166 47.97 -2.167 46.767 -2.168 45.527 C-2.171 44.293 -2.175 43.059 -2.178 41.788 C-2.183 39.178 -2.185 36.568 -2.185 33.958 C-2.185 31.276 -2.192 28.594 -2.206 25.912 C-2.224 22.054 -2.229 18.197 -2.23 14.34 C-2.238 13.135 -2.245 11.929 -2.252 10.688 C-2.249 9.576 -2.246 8.465 -2.243 7.32 C-2.245 5.848 -2.245 5.848 -2.247 4.346 C-2 2 -2 2 0 0 Z " fill="#F4F3F2" transform="translate(250,355)"/>
<path d="M0 0 C15 0 15 0 21 4 C23.597 6.597 23.257 7.694 23.266 11.305 C23.269 12.892 23.269 12.892 23.273 14.512 C23.266 15.622 23.258 16.731 23.25 17.875 C23.258 18.977 23.265 20.079 23.273 21.215 C23.271 22.276 23.268 23.337 23.266 24.43 C23.263 25.401 23.261 26.373 23.259 27.375 C22.977 30.232 22.667 31.667 21 34 C15 38 15 38 0 38 C0 25.46 0 12.92 0 0 Z " fill="#222221" transform="translate(498,341)"/>
<path d="M0 0 C3.919 3.749 4.401 7.038 5.156 12.281 C5.263 13.009 5.371 13.737 5.481 14.488 C5.708 16.034 5.933 17.581 6.157 19.128 C6.495 21.464 6.839 23.798 7.184 26.133 C8.299 33.744 9.325 41.334 10 49 C4.39 49 -1.22 49 -7 49 C-6.644 38.421 -5.737 28.204 -4.062 17.75 C-3.893 16.68 -3.723 15.609 -3.548 14.506 C-2.717 9.507 -1.827 4.752 0 0 Z " fill="#262625" transform="translate(1195,356)"/>
<path d="M0 0 C0.66 0 1.32 0 2 0 C2 6.27 2 12.54 2 19 C1.67 18.01 1.34 17.02 1 16 C-0.32 16.33 -1.64 16.66 -3 17 C-2.692 14.541 -2.379 12.083 -2.062 9.625 C-1.975 8.926 -1.888 8.228 -1.799 7.508 C-1.113 2.227 -1.113 2.227 0 0 Z " fill="#4E4E4D" transform="translate(937,365)"/>
<path d="M0 0 C3.375 4.5 3.375 4.5 3.688 8.75 C3.753 9.549 3.819 10.348 3.887 11.172 C3.924 11.775 3.961 12.378 4 13 C3.34 13 2.68 13 2 13 C1.67 19.27 1.34 25.54 1 32 C0.67 32 0.34 32 0 32 C0 21.44 0 10.88 0 0 Z " fill="#494948" transform="translate(887,366)"/>
<path d="M0 0 C0.99 0 1.98 0 3 0 C3 1.65 3 3.3 3 5 C1.02 5.66 -0.96 6.32 -3 7 C-2.01 4.69 -1.02 2.38 0 0 Z " fill="#31312F" transform="translate(705,395)"/>
<path d="M0 0 C0.66 0 1.32 0 2 0 C2.33 2.31 2.66 4.62 3 7 C2.01 7 1.02 7 0 7 C0 4.69 0 2.38 0 0 Z " fill="#3C3B3A" transform="translate(888,372)"/>
</svg>