
<!-- Generator: visioncortex VTracer 0.6.4 -->
<svg version="1.1" xmlns="http://www.w3.org/2000/svg" viewBox="0 0 1408 768" preserveAspectRatio="xMidYMid meet">
<path d="M0 0 C464.64 0 929.28 0 1408 0 C1408 253.44 1408 506.88 1408 768 C943.36 768 478.72 768 0 768 C0 514.56 0 261.12 0 0 Z " fill="#F3F2F2" transform="translate(0,0)"/>
<path d="M0 0 C48.538 0 48.538 0 57 8 C65.367 17.784 66.462 27.873 66.434 40.387 C66.438 41.775 66.443 43.164 66.449 44.552 C66.458 47.453 66.456 50.353 66.446 53.254 C66.435 56.93 66.455 60.606 66.484 64.283 C66.503 67.149 66.502 70.016 66.496 72.883 C66.496 74.884 66.513 76.885 66.53 78.887 C66.441 90.777 64.78 103.264 56 112 C48.127 118.748 38.42 120.356 28.375 120.375 C27.619 120.377 26.864 120.378 26.085 120.38 C17.289 120.217 8.813 118.979 0 118 C0 79.06 0 40.12 0 0 Z " fill="#BA6E4F" transform="translate(1032,323)"/>
<path d="M0 0 C7.59 0 15.18 0 23 0 C26.192 12.482 29.083 25.019 31.892 37.593 C32.628 40.891 33.369 44.187 34.109 47.484 C34.586 49.612 35.063 51.74 35.539 53.867 C35.757 54.837 35.975 55.807 36.199 56.807 C37.548 62.856 38.811 68.917 40 75 C40.33 75 40.66 75 41 75 C41.154 74.294 41.308 73.588 41.467 72.861 C42.934 66.14 44.404 59.419 45.878 52.699 C46.635 49.246 47.391 45.793 48.144 42.339 C49.014 38.349 49.89 34.36 50.766 30.371 C51.029 29.158 51.293 27.945 51.565 26.695 C57.006 1.994 57.006 1.994 59 0 C60.635 -0.087 62.273 -0.107 63.91 -0.098 C64.9 -0.094 65.889 -0.091 66.908 -0.088 C67.949 -0.08 68.99 -0.071 70.062 -0.062 C71.63 -0.056 71.63 -0.056 73.229 -0.049 C75.819 -0.037 78.41 -0.021 81 0 C81.864 6.061 82.204 12 82.316 18.117 C82.348 19.597 82.348 19.597 82.38 21.107 C82.446 24.363 82.505 27.619 82.562 30.875 C82.584 31.993 82.605 33.11 82.627 34.262 C83.148 62.174 83.098 90.084 83 118 C77.39 118 71.78 118 66 118 C65.945 116.453 65.889 114.906 65.832 113.313 C65.624 107.496 65.412 101.679 65.2 95.863 C65.11 93.36 65.019 90.857 64.93 88.354 C64.436 74.559 63.915 60.774 63 47 C62.832 47.919 62.663 48.839 62.49 49.786 C58.219 72.987 53.457 96.049 48 119 C43.38 119 38.76 119 34 119 C32.404 115.01 31.374 111.617 30.484 107.461 C30.206 106.171 29.927 104.881 29.639 103.552 C29.343 102.16 29.046 100.767 28.75 99.375 C28.285 97.212 27.819 95.05 27.353 92.888 C27.036 91.419 26.719 89.95 26.404 88.48 C25.387 83.761 24.343 79.049 23.277 74.34 C22.875 72.557 22.875 72.557 22.464 70.739 C21.964 68.532 21.461 66.326 20.954 64.121 C19.3 56.789 18.059 49.441 17 42 C16.99 42.581 16.979 43.162 16.969 43.761 C16.01 97.584 16.01 97.584 15 119 C12.354 119.027 9.708 119.047 7.062 119.062 C6.308 119.071 5.553 119.079 4.775 119.088 C2.85 119.097 0.925 119.052 -1 119 C-2.865 117.135 -2.128 114.001 -2.129 111.513 C-2.131 110.832 -2.133 110.151 -2.135 109.449 C-2.139 107.171 -2.136 104.892 -2.133 102.613 C-2.134 101.012 -2.135 99.412 -2.137 97.811 C-2.14 93.528 -2.135 89.245 -2.129 84.962 C-2.125 82.325 -2.123 79.687 -2.121 77.049 C-2.107 57.531 -2.092 38.012 -1.562 18.5 C-1.543 17.743 -1.523 16.986 -1.503 16.205 C-1.194 4.777 -1.194 4.777 0 0 Z " fill="#B96C4E" transform="translate(870,323)"/>
<path d="M0 0 C5.61 0 11.22 0 17 0 C22.21 11.425 27.26 22.884 31.984 34.517 C34.109 39.71 36.277 44.885 38.438 50.062 C38.887 51.141 39.337 52.22 39.801 53.331 C40.867 55.888 41.933 58.444 43 61 C43.038 59.241 43.038 59.241 43.076 57.446 C43.172 52.997 43.272 48.548 43.372 44.099 C43.415 42.192 43.457 40.285 43.497 38.378 C43.771 25.566 44.267 12.794 45 0 C51.27 0 57.54 0 64 0 C64 39.27 64 78.54 64 119 C58.39 119 52.78 119 47 119 C46.292 117.128 45.585 115.257 44.855 113.328 C41.763 105.29 38.346 97.407 34.9 89.516 C29.676 77.448 24.85 65.222 20 53 C19.985 54.199 19.985 54.199 19.969 55.423 C19.871 62.943 19.768 70.462 19.661 77.982 C19.605 81.848 19.552 85.714 19.503 89.581 C19.455 93.309 19.403 97.037 19.347 100.765 C19.327 102.191 19.308 103.616 19.291 105.042 C19.267 107.032 19.236 109.022 19.205 111.011 C19.19 112.146 19.174 113.281 19.158 114.45 C19 117 19 117 18 118 C12.06 118 6.12 118 0 118 C0 79.06 0 40.12 0 0 Z " fill="#BB6949" transform="translate(606,323)"/>
<path d="M0 0 C7.59 0 15.18 0 23 0 C23.33 14.85 23.66 29.7 24 45 C29.79 32.436 29.79 32.436 35.577 19.871 C36.308 18.286 37.039 16.702 37.77 15.117 C38.143 14.306 38.516 13.494 38.901 12.658 C39.266 11.867 39.631 11.076 40.007 10.261 C40.32 9.582 40.633 8.902 40.956 8.202 C42.262 5.448 43.637 2.726 45 0 C52.26 0 59.52 0 67 0 C63.867 8.963 60.661 17.727 56.641 26.332 C56.347 26.964 56.054 27.596 55.752 28.247 C54.284 31.406 52.794 34.551 51.269 37.682 C46.354 48.175 45.374 54.999 49.273 65.977 C50.273 68.541 51.322 71.082 52.375 73.625 C52.92 74.983 53.463 76.341 54.005 77.7 C55.381 81.142 56.778 84.574 58.183 88.004 C59.941 92.298 61.683 96.599 63.42 100.902 C64.289 103.049 65.166 105.193 66.052 107.333 C66.637 108.767 66.637 108.767 67.234 110.23 C67.577 111.06 67.92 111.889 68.272 112.743 C69 115 69 115 69 119 C61.41 119 53.82 119 46 119 C39.737 102.423 33.513 85.845 28 69 C24.915 71.909 24.915 71.909 23.849 75.904 C23.83 77.065 23.83 77.065 23.811 78.25 C23.794 79.128 23.777 80.005 23.76 80.909 C23.746 81.858 23.733 82.807 23.719 83.785 C23.7 84.757 23.682 85.728 23.663 86.729 C23.584 90.898 23.516 95.067 23.448 99.236 C23.396 102.273 23.339 105.31 23.281 108.348 C23.268 109.299 23.254 110.25 23.24 111.23 C23.223 112.104 23.207 112.978 23.189 113.879 C23.171 115.039 23.171 115.039 23.151 116.223 C23 118 23 118 22 119 C14.74 119 7.48 119 0 119 C0 79.73 0 40.46 0 0 Z " fill="#B96A4B" transform="translate(686,323)"/>
<path d="M0 0 C49.282 0 49.282 0 56.387 6.223 C64.494 15.155 66.358 25.08 66.211 36.879 C65.569 46.382 62.332 54.987 55.301 61.598 C45.388 69.238 34.471 67 22 67 C22 84.16 22 101.32 22 119 C14.74 119 7.48 119 0 119 C0 79.73 0 40.46 0 0 Z " fill="#BA6E4F" transform="translate(491,323)"/>
<path d="M0 0 C8.25 0 16.5 0 25 0 C28.893 14.028 31.906 28.075 34.623 42.373 C38.268 61.545 42.039 80.656 46.714 99.607 C47.019 100.87 47.323 102.133 47.637 103.434 C47.902 104.496 48.167 105.559 48.44 106.654 C49 110 49 110 49 119 C42.07 119 35.14 119 28 119 C27.329 115.251 26.663 111.501 26 107.75 C25.809 106.687 25.618 105.623 25.422 104.527 C25.241 103.503 25.061 102.478 24.875 101.422 C24.624 100.008 24.624 100.008 24.367 98.565 C24 96 24 96 24 92 C13.605 92.495 13.605 92.495 3 93 C2.723 94.721 2.446 96.442 2.16 98.215 C1.794 100.456 1.429 102.697 1.062 104.938 C0.88 106.074 0.698 107.21 0.51 108.381 C0.333 109.46 0.155 110.54 -0.027 111.652 C-0.19 112.653 -0.352 113.653 -0.519 114.683 C-1 117 -1 117 -2 118 C-3.489 118.087 -4.981 118.107 -6.473 118.098 C-7.372 118.094 -8.271 118.091 -9.197 118.088 C-10.616 118.075 -10.616 118.075 -12.062 118.062 C-13.012 118.058 -13.961 118.053 -14.939 118.049 C-17.293 118.037 -19.646 118.021 -22 118 C-21.66 105.403 -18.841 93.235 -16.312 80.938 C-15.854 78.678 -15.396 76.418 -14.939 74.158 C-12.378 61.545 -9.741 48.951 -6.991 36.378 C-4.371 24.305 -2.198 12.156 0 0 Z " fill="#B96B4C" transform="translate(1168,323)"/>
<path d="M0 0 C6.333 6.279 9.93 13.284 9.98 22.215 C9.949 23.757 9.91 25.299 9.855 26.84 C3.372 29.471 -2.168 30.233 -9.145 29.84 C-9.303 29.032 -9.462 28.223 -9.625 27.391 C-10.672 22.596 -11.571 18.692 -14.332 14.59 C-18.322 12.107 -20.491 12.239 -25.145 12.84 C-27.819 14.651 -28.104 15.717 -29.145 18.84 C-29.684 25.202 -28.955 29.625 -25.145 34.84 C-20.634 39.61 -15.523 43.586 -10.256 47.473 C-0.511 54.704 8.79 63.696 11.855 75.84 C13.206 86.564 12.663 96.705 6.5 105.852 C1.486 112.264 -5.045 115.722 -13.145 116.84 C-23.689 117.671 -33.024 116.405 -41.395 109.57 C-44.329 106.668 -46.298 103.511 -48.145 99.84 C-48.624 98.933 -48.624 98.933 -49.113 98.008 C-51.912 91.854 -51.418 85.472 -51.145 78.84 C-44.269 76.681 -38.359 75.485 -31.145 75.84 C-30.951 76.853 -30.758 77.866 -30.559 78.91 C-30.296 80.262 -30.033 81.613 -29.77 82.965 C-29.643 83.63 -29.517 84.295 -29.387 84.98 C-28.575 89.118 -27.491 92.802 -26.145 96.84 C-21.525 96.84 -16.905 96.84 -12.145 96.84 C-9.831 89.898 -11.095 83.32 -14.145 76.84 C-18.771 68.553 -26.703 62.987 -33.988 57.172 C-45.722 47.786 -45.722 47.786 -47.457 43.84 C-47.742 43.221 -48.027 42.602 -48.32 41.965 C-48.728 40.913 -48.728 40.913 -49.145 39.84 C-49.502 38.959 -49.859 38.079 -50.227 37.172 C-52.62 28.485 -53.066 15.628 -48.531 7.625 C-42.842 0.301 -35.613 -4.009 -26.582 -5.91 C-16.657 -6.632 -8.008 -6.537 0 0 Z " fill="#B96B4C" transform="translate(467.14453125,327.16015625)"/>
<path d="M0 0 C7.12 5.31 11.264 12.322 13 21 C13.065 22.582 13.086 24.167 13.062 25.75 C13.053 26.549 13.044 27.348 13.035 28.172 C13.024 28.775 13.012 29.378 13 30 C10.772 30.506 8.543 31.005 6.312 31.5 C5.071 31.778 3.83 32.057 2.551 32.344 C-0.424 32.894 -2.994 33.138 -6 33 C-6.242 31.952 -6.485 30.904 -6.734 29.824 C-7.072 28.445 -7.411 27.066 -7.75 25.688 C-7.907 24.997 -8.065 24.307 -8.227 23.596 C-9.005 20.496 -9.655 18.349 -11.926 16.051 C-15.157 14.414 -17.441 14.5 -21 15 C-24.083 16.917 -24.083 16.917 -26 20 C-27.035 25.978 -24.933 30.876 -22 36 C-19.353 39.643 -16.538 42.355 -13 45.125 C12.611 65.771 12.611 65.771 15 80 C16.012 91.378 15.067 101.329 7.75 110.438 C1.656 116.805 -4.909 118.658 -13.551 119.238 C-21.286 119.391 -27.408 119.27 -34 115 C-34.934 114.416 -34.934 114.416 -35.887 113.82 C-42.089 109.273 -45.731 101.822 -47.66 94.492 C-48.042 91.693 -48.097 89.011 -48.062 86.188 C-48.053 85.212 -48.044 84.236 -48.035 83.23 C-48.024 82.494 -48.012 81.758 -48 81 C-46.337 80.487 -44.67 79.99 -43 79.5 C-42.072 79.222 -41.144 78.943 -40.188 78.656 C-36.342 77.865 -32.921 77.899 -29 78 C-28.746 79.109 -28.492 80.217 -28.23 81.359 C-27.883 82.823 -27.536 84.287 -27.188 85.75 C-27.022 86.48 -26.856 87.209 -26.686 87.961 C-25.713 92 -24.735 94.772 -22 98 C-22 98.66 -22 99.32 -22 100 C-14.813 99.767 -14.813 99.767 -9 96 C-6.853 89.559 -7.68 84.177 -10.633 78.211 C-15.44 70.437 -23.46 65.194 -30.578 59.68 C-39.365 52.844 -46.056 47.48 -48 36 C-48.272 33.159 -48.335 30.353 -48.312 27.5 C-48.307 26.752 -48.301 26.005 -48.295 25.235 C-48.099 16.353 -45.344 9.413 -39 3 C-27.332 -5.259 -12.749 -7.05 0 0 Z " fill="#B96B4D" transform="translate(808,325)"/>
<path d="M0 0 C16.83 0 33.66 0 51 0 C51 5.28 51 10.56 51 16 C41.1 16 31.2 16 21 16 C21 26.89 21 37.78 21 49 C28.59 49 36.18 49 44 49 C44 53.95 44 58.9 44 64 C36.41 64 28.82 64 21 64 C21 76.87 21 89.74 21 103 C30.9 103 40.8 103 51 103 C51 108.28 51 113.56 51 119 C34.17 119 17.34 119 0 119 C0 79.73 0 40.46 0 0 Z " fill="#B96C4D" transform="translate(970,323)"/>
<path d="M0 0 C32.01 0 64.02 0 97 0 C92.066 14.802 78.48 25.029 65 32 C60.111 34.31 55.097 36.206 50 38 C48.598 38.495 48.598 38.495 47.168 39 C39.265 41.465 31.216 41.701 23 42 C16.535 31.739 10.121 21.455 4.188 10.875 C3.549 9.749 3.549 9.749 2.897 8.6 C0 3.365 0 3.365 0 0 Z " fill="#BB6949" transform="translate(261,433)"/>
<path d="M0 0 C2.207 0.039 2.207 0.039 5 1 C6.811 3.454 8.242 5.717 9.688 8.375 C10.116 9.132 10.545 9.89 10.986 10.67 C14.546 17.015 17.906 23.469 21.26 29.925 C23.936 35.056 26.731 40.088 29.688 45.062 C30.08 45.723 30.472 46.383 30.876 47.063 C31.741 48.515 32.605 49.967 33.469 51.419 C36.364 56.299 39.234 61.192 42.088 66.096 C42.776 67.277 43.467 68.457 44.161 69.635 C45.137 71.292 46.104 72.954 47.07 74.617 C47.917 76.065 47.917 76.065 48.782 77.542 C50 80 50 80 50 83 C31.067 84.437 11.603 75.404 -2.66 63.164 C-19.274 47.799 -19.274 47.799 -21 42 C-20.753 36.41 -18.883 32.339 -16.062 27.625 C-15.473 26.609 -15.473 26.609 -14.871 25.572 C-13.592 23.374 -12.297 21.187 -11 19 C-10.071 17.417 -9.142 15.834 -8.215 14.25 C-6.473 11.28 -4.724 8.314 -2.969 5.352 C-1.936 3.593 -0.912 1.825 0 0 Z " fill="#B96A4B" transform="translate(225,391)"/>
<path d="M0 0 C2.911 -0.27 4.975 -0.231 7.805 0.484 C13.645 5.86 17.328 13.615 20.992 20.547 C21.753 21.959 21.753 21.959 22.529 23.4 C23.971 26.087 25.393 28.782 26.805 31.484 C27.218 32.274 27.631 33.064 28.057 33.878 C30.805 39.232 30.805 39.232 30.805 41.484 C-1.205 41.484 -33.215 41.484 -66.195 41.484 C-56.616 22.326 -39.205 10.296 -19.195 3.484 C-12.874 1.663 -6.487 0.983 0 0 Z " fill="#BB6949" transform="translate(272.1953125,290.515625)"/>
<path d="M0 0 C24.727 0.821 45.504 11.762 62.543 29.312 C70.246 37.738 70.246 37.738 72 43 C71.079 45.34 70.094 47.465 68.938 49.688 C68.593 50.364 68.249 51.04 67.895 51.736 C62.364 62.393 56.131 72.682 50 83 C45.232 81.31 43.763 79.72 41.188 75.312 C40.845 74.732 40.502 74.152 40.149 73.554 C37.427 68.892 34.91 64.121 32.407 59.338 C29.25 53.357 25.857 47.522 22.438 41.688 C21.85 40.684 21.263 39.68 20.657 38.646 C18.427 34.841 16.196 31.035 13.961 27.232 C11.848 23.635 9.74 20.034 7.641 16.428 C6.64 14.713 5.631 13.001 4.623 11.29 C4.018 10.249 3.413 9.209 2.789 8.137 C2.25 7.216 1.71 6.295 1.155 5.346 C0 3 0 3 0 0 Z " fill="#BB6949" transform="translate(289,291)"/>
<path d="M0 0 C3.322 1.359 4.634 2.459 6.062 5.75 C14.236 26.361 13.782 51.829 5.656 72.402 C4.513 74.985 3.311 77.499 2 80 C1.67 80.66 1.34 81.32 1 82 C-14.84 82 -30.68 82 -47 82 C-42.148 72.296 -37.357 62.872 -31.875 53.562 C-26.69 44.679 -21.61 35.747 -16.625 26.75 C-3.961 3.961 -3.961 3.961 0 0 Z " fill="#BB6949" transform="translate(363,344)"/>
<path d="M0 0 C0.833 0.002 1.665 0.004 2.523 0.007 C3.464 0.007 4.405 0.007 5.375 0.007 C6.398 0.012 7.42 0.017 8.474 0.023 C9.516 0.024 10.558 0.025 11.631 0.027 C14.974 0.033 18.316 0.045 21.658 0.058 C23.918 0.063 26.177 0.067 28.437 0.071 C33.99 0.082 39.543 0.099 45.095 0.12 C43.813 4.294 42.238 7.959 40.111 11.769 C39.513 12.844 38.915 13.919 38.298 15.027 C37.654 16.172 37.009 17.316 36.345 18.495 C35.669 19.704 34.993 20.913 34.316 22.121 C28.857 31.859 23.268 41.519 17.599 51.136 C15.105 55.372 12.664 59.636 10.248 63.917 C9.616 65.028 8.983 66.139 8.332 67.284 C7.115 69.424 5.908 71.569 4.712 73.721 C4.166 74.676 3.619 75.632 3.056 76.616 C2.58 77.464 2.103 78.311 1.613 79.184 C0.095 81.12 0.095 81.12 -2.09 81.902 C-2.689 81.974 -3.287 82.046 -3.905 82.12 C-13.893 55.61 -15.539 29.64 -3.955 3.245 C-2.426 0.153 -2.426 0.153 0 0 Z " fill="#BA6949" transform="translate(201.90455627441406,339.87974548339844)"/>
<path d="M0 0 C6.93 0 13.86 0 21 0 C21 39.27 21 78.54 21 119 C14.07 119 7.14 119 0 119 C0 79.73 0 40.46 0 0 Z " fill="#B96C4E" transform="translate(568,323)"/>
<path d="M0 0 C6.93 0 13.86 0 21 0 C21 39.27 21 78.54 21 119 C14.4 119 7.8 119 1 119 C0 118 0 118 -0.123 116.034 C-0.122 115.165 -0.121 114.296 -0.12 113.4 C-0.122 112.406 -0.123 111.412 -0.124 110.387 C-0.121 109.287 -0.117 108.188 -0.114 107.054 C-0.114 105.903 -0.114 104.752 -0.114 103.566 C-0.113 99.741 -0.105 95.915 -0.098 92.09 C-0.096 89.446 -0.094 86.802 -0.093 84.157 C-0.09 77.896 -0.082 71.634 -0.072 65.373 C-0.061 58.246 -0.055 51.119 -0.05 43.992 C-0.04 29.328 -0.022 14.664 0 0 Z " fill="#BA6D4F" transform="translate(1113,323)"/>
<path d="M0 0 C5.118 0.405 8.954 1.662 13.5 4 C14.097 4.307 14.694 4.614 15.308 4.93 C21.75 8.297 27.962 12.046 34.146 15.859 C36.014 17.009 37.889 18.146 39.766 19.281 C48.724 24.724 48.724 24.724 51 27 C51.523 29.332 51.523 29.332 51 32 C48.882 33.858 47 35.23 44.625 36.688 C43.626 37.327 43.626 37.327 42.606 37.98 C36.69 41.709 30.588 45.111 24.439 48.438 C20.071 50.806 15.923 53.323 11.812 56.125 C7.585 58.91 5.009 59.779 0 59 C-1.293 56.413 -1.127 54.545 -1.129 51.648 C-1.134 49.972 -1.134 49.972 -1.139 48.261 C-1.137 47.049 -1.135 45.838 -1.133 44.59 C-1.134 43.352 -1.135 42.114 -1.136 40.839 C-1.137 37.546 -1.133 34.254 -1.127 30.961 C-1.125 28.938 -1.127 26.915 -1.13 24.891 C-1.137 21.02 -1.136 17.149 -1.133 13.277 C-1.135 12.064 -1.137 10.85 -1.139 9.6 C-1.136 8.485 -1.133 7.371 -1.129 6.222 C-1.129 5.236 -1.128 4.249 -1.127 3.233 C-1 1 -1 1 0 0 Z " fill="#BA6949" transform="translate(263,353)"/>
<path d="M0 0 C15.135 0 15.135 0 20 4 C21.98 7.842 22.261 11.088 22.291 15.376 C22.31 17.279 22.31 17.279 22.329 19.22 C22.332 20.599 22.334 21.977 22.336 23.355 C22.342 24.782 22.349 26.208 22.356 27.634 C22.368 30.622 22.372 33.611 22.371 36.599 C22.37 40.404 22.398 44.208 22.432 48.013 C22.455 50.96 22.458 53.907 22.457 56.854 C22.46 58.255 22.468 59.657 22.484 61.058 C22.565 69.055 22.634 77.121 18 84 C14 86 14 86 0 86 C0 57.62 0 29.24 0 0 Z " fill="#F2F2F2" transform="translate(1054,340)"/>
<path d="M0 0 C2.681 -0.144 5.362 -0.289 8.125 -0.438 C8.958 -0.501 9.791 -0.565 10.649 -0.631 C13.869 -0.714 16.139 -0.57 18.867 1.236 C22.799 5.221 23.77 8.92 23.82 14.432 C23.797 15.3 23.774 16.168 23.75 17.062 C23.773 17.935 23.796 18.807 23.82 19.705 C23.781 24.078 23.41 27.206 20.508 30.598 C16.669 33.849 12.944 33.691 8.125 33.375 C5.444 33.251 2.763 33.127 0 33 C0 22.11 0 11.22 0 0 Z " fill="#F3F1F1" transform="translate(513,340)"/>
<path d="M0 0 C7.59 0 15.18 0 23 0 C23.33 14.85 23.66 29.7 24 45 C29.79 32.436 29.79 32.436 35.577 19.871 C36.308 18.286 37.039 16.702 37.77 15.117 C38.143 14.306 38.516 13.494 38.901 12.658 C39.266 11.867 39.631 11.076 40.007 10.261 C40.32 9.582 40.633 8.902 40.956 8.202 C42.262 5.448 43.637 2.726 45 0 C52.26 0 59.52 0 67 0 C66.67 0.99 66.34 1.98 66 3 C64.737 2.941 63.474 2.883 62.173 2.822 C53.127 2.657 53.127 2.657 45.303 6.514 C41.732 11.326 39.73 16.939 37.625 22.5 C36.942 24.144 36.252 25.784 35.555 27.422 C34.234 30.545 32.951 33.68 31.7 36.832 C29.749 41.7 27.481 46.381 25 51 C23.68 50.67 22.36 50.34 21 50 C21 34.16 21 18.32 21 2 C14.73 2 8.46 2 2 2 C2 40.28 2 78.56 2 118 C8.6 118 15.2 118 22 118 C22 118.33 22 118.66 22 119 C14.74 119 7.48 119 0 119 C0 79.73 0 40.46 0 0 Z " fill="#B97E66" transform="translate(686,323)"/>
<path d="M0 0 C32.01 0 64.02 0 97 0 C92.014 14.957 78.456 24.777 65 32 C62.613 32.723 62.613 32.723 61 33 C61 32.01 61 31.02 61 30 C63.1 28.493 65.155 27.179 67.375 25.875 C77.087 19.9 84.589 12.617 92 4 C62.995 3.055 34.019 2.878 5 3 C6.556 5.99 8.117 8.978 9.68 11.965 C10.114 12.799 10.548 13.634 10.995 14.494 C14.206 20.622 17.634 26.577 21.301 32.444 C24 36.804 24 36.804 24 39 C24.748 38.977 25.495 38.954 26.266 38.93 C27.25 38.912 28.235 38.894 29.25 38.875 C30.225 38.852 31.199 38.829 32.203 38.805 C35 39 35 39 39 41 C31.08 41.495 31.08 41.495 23 42 C16.541 31.734 10.121 21.456 4.188 10.875 C3.549 9.749 3.549 9.749 2.897 8.6 C0 3.365 0 3.365 0 0 Z " fill="#B57E67" transform="translate(261,433)"/>
<path d="M0 0 C2.481 0.983 3.771 1.643 5.23 3.918 C7.234 8.668 8.562 12.854 9 18 C8.01 18 7.02 18 6 18 C5.734 17.073 5.469 16.146 5.195 15.191 C4.666 13.395 4.666 13.395 4.125 11.562 C3.777 10.368 3.429 9.173 3.07 7.941 C2.339 4.883 2.339 4.883 0 4 C-0.202 4.768 -0.405 5.537 -0.613 6.328 C-2.563 11.49 -5.366 16.021 -8.188 20.75 C-9.458 22.903 -10.727 25.057 -11.996 27.211 C-12.655 28.326 -13.313 29.44 -13.992 30.589 C-17.275 36.166 -20.515 41.769 -23.75 47.375 C-24.326 48.37 -24.903 49.365 -25.497 50.39 C-30.778 59.535 -35.869 68.764 -41 78 C-26.48 78 -11.96 78 3 78 C2.34 79.32 1.68 80.64 1 82 C-14.84 82 -30.68 82 -47 82 C-42.148 72.296 -37.357 62.872 -31.875 53.562 C-26.69 44.679 -21.61 35.747 -16.625 26.75 C-3.961 3.961 -3.961 3.961 0 0 Z " fill="#B27861" transform="translate(363,344)"/>
<path d="M0 0 C5.61 0 11.22 0 17 0 C18.483 3.248 19.962 6.498 21.438 9.75 C21.858 10.67 22.279 11.591 22.713 12.539 C23.116 13.429 23.519 14.318 23.934 15.234 C24.491 16.46 24.491 16.46 25.06 17.71 C25.918 19.801 26.52 21.796 27 24 C26.01 24 25.02 24 24 24 C22.68 21.441 21.369 18.878 20.062 16.312 C19.689 15.591 19.316 14.87 18.932 14.127 C18.574 13.421 18.216 12.715 17.848 11.988 C17.518 11.344 17.188 10.7 16.848 10.036 C16 8 16 8 15 3 C10.71 3 6.42 3 2 3 C2 40.62 2 78.24 2 117 C6.95 117 11.9 117 17 117 C17 95.55 17 74.1 17 52 C17.66 52 18.32 52 19 52 C19.023 60.458 19.041 68.915 19.052 77.373 C19.057 81.3 19.064 85.227 19.075 89.154 C19.086 92.94 19.092 96.727 19.095 100.513 C19.097 101.961 19.1 103.409 19.106 104.857 C19.113 106.878 19.113 108.899 19.114 110.92 C19.116 112.072 19.118 113.225 19.12 114.412 C19 117 19 117 18 118 C12.06 118 6.12 118 0 118 C0 79.06 0 40.12 0 0 Z " fill="#B57C63" transform="translate(606,323)"/>
<path d="M0 0 C6.27 0 12.54 0 19 0 C19 39.27 19 78.54 19 119 C13.39 119 7.78 119 2 119 C-3.223 105.607 -3.223 105.607 -4 102 C-3.01 102 -2.02 102 -1 102 C-0.162 103.956 0.67 105.915 1.5 107.875 C2.196 109.511 2.196 109.511 2.906 111.18 C4 114 4 114 4 116 C7.96 116.33 11.92 116.66 16 117 C16 79.38 16 41.76 16 3 C13.36 3 10.72 3 8 3 C8 2.34 8 1.68 8 1 C5.36 1 2.72 1 0 1 C0 0.67 0 0.34 0 0 Z " fill="#BA7D64" transform="translate(651,323)"/>
<path d="M0 0 C5.599 5.281 9.163 11.426 13 18 C13.399 18.677 13.797 19.354 14.208 20.051 C15.441 22.153 16.66 24.262 17.875 26.375 C18.447 27.355 18.447 27.355 19.03 28.355 C19.389 28.988 19.748 29.621 20.117 30.273 C20.433 30.824 20.749 31.375 21.074 31.943 C22.376 34.836 23.128 37.949 24 41 C-8.01 41 -40.02 41 -73 41 C-66.165 27.33 -53.891 14.187 -39 9 C-40.776 13.52 -44.007 15.536 -47.824 18.34 C-51.34 20.944 -54.818 23.584 -58.188 26.375 C-59.106 27.129 -59.106 27.129 -60.043 27.898 C-62.829 30.89 -64.833 34.533 -67 38 C-38.29 38 -9.58 38 20 38 C10.058 20.966 10.058 20.966 0 4 C0 2.68 0 1.36 0 0 Z " fill="#AF755E" transform="translate(279,291)"/>
<path d="M0 0 C0.66 0 1.32 0 2 0 C4.154 6.779 5.433 13.43 6.223 20.498 C6.961 27.028 8.009 33.494 9.123 39.969 C9.456 41.973 9.734 43.986 10 46 C9 47 9 47 5.402 47.098 C3.914 47.091 2.426 47.079 0.938 47.062 C-0.2 47.056 -0.2 47.056 -1.361 47.049 C-3.241 47.037 -5.12 47.019 -7 47 C-6.331 39.301 -5.258 31.696 -4.062 24.062 C-3.893 22.96 -3.723 21.857 -3.549 20.721 C-2.474 13.793 -1.292 6.891 0 0 Z " fill="#EEE6E3" transform="translate(1180,353)"/>
<path d="M0 0 C2.062 0.438 2.062 0.438 4 1 C3.01 1 2.02 1 1 1 C1.03 2.067 1.061 3.135 1.092 4.234 C1.206 8.275 1.317 12.316 1.427 16.356 C1.475 18.09 1.523 19.824 1.573 21.558 C1.889 32.709 2.07 43.844 2 55 C10.044 52.376 17.194 48.932 24.5 44.688 C25.455 44.144 26.41 43.601 27.395 43.041 C34.058 39.223 40.554 35.173 47 31 C46.752 29.063 46.752 29.063 46 27 C43.394 25.331 40.869 23.903 38.125 22.5 C31.081 18.742 24.205 14.799 17.438 10.562 C16.611 10.055 15.784 9.547 14.932 9.023 C14.169 8.543 13.407 8.062 12.621 7.566 C11.945 7.143 11.269 6.72 10.572 6.283 C9 5 9 5 8 2 C14.126 3.616 19.189 6.883 24.562 10.125 C25.537 10.707 26.511 11.29 27.515 11.89 C30.347 13.587 33.174 15.292 36 17 C36.746 17.449 37.491 17.898 38.259 18.36 C48.576 24.576 48.576 24.576 51 27 C51.523 29.332 51.523 29.332 51 32 C48.882 33.858 47 35.23 44.625 36.688 C43.626 37.327 43.626 37.327 42.606 37.98 C36.69 41.709 30.588 45.111 24.439 48.438 C20.071 50.806 15.923 53.323 11.812 56.125 C7.585 58.91 5.009 59.779 0 59 C-1.293 56.413 -1.127 54.545 -1.129 51.648 C-1.134 49.972 -1.134 49.972 -1.139 48.261 C-1.137 47.049 -1.135 45.838 -1.133 44.59 C-1.134 43.352 -1.135 42.114 -1.136 40.839 C-1.137 37.546 -1.133 34.254 -1.127 30.961 C-1.125 28.938 -1.127 26.915 -1.13 24.891 C-1.137 21.02 -1.136 17.149 -1.133 13.277 C-1.135 12.064 -1.137 10.85 -1.139 9.6 C-1.136 8.485 -1.133 7.371 -1.129 6.222 C-1.129 5.236 -1.128 4.249 -1.127 3.233 C-1 1 -1 1 0 0 Z " fill="#B77F67" transform="translate(263,353)"/>
<path d="M0 0 C2.184 -0.008 2.184 -0.008 5 1 C7.054 3.498 8.528 6.288 10.062 9.125 C10.694 10.246 10.694 10.246 11.338 11.391 C12.171 12.873 12.995 14.36 13.809 15.853 C14.95 17.91 16.156 19.916 17.371 21.93 C17.909 22.943 18.446 23.956 19 25 C18.67 25.66 18.34 26.32 18 27 C14.441 25.814 14.306 25.242 12.66 22.035 C12.237 21.235 11.813 20.435 11.377 19.611 C10.503 17.917 9.631 16.221 8.76 14.525 C8.123 13.324 8.123 13.324 7.473 12.098 C7.094 11.36 6.715 10.623 6.324 9.864 C4.787 7.7 3.435 6.981 1 6 C0.597 6.721 0.194 7.441 -0.222 8.184 C-1.735 10.888 -3.248 13.592 -4.762 16.297 C-5.732 18.03 -6.702 19.764 -7.672 21.498 C-8.291 22.603 -8.909 23.709 -9.547 24.848 C-10.144 25.919 -10.74 26.99 -11.355 28.093 C-12.69 30.453 -14.075 32.765 -15.488 35.078 C-17.368 38.01 -17.368 38.01 -16.438 41.688 C-10.316 54.852 3.958 63.845 15.691 71.301 C16.453 71.862 17.215 72.422 18 73 C18 73.66 18 74.32 18 75 C7.202 71.732 -0.979 64.692 -9 57 C-9.992 56.085 -9.992 56.085 -11.004 55.152 C-14.94 51.421 -19.213 47.213 -21 42 C-20.781 36.41 -18.881 32.335 -16.062 27.625 C-15.473 26.609 -15.473 26.609 -14.871 25.572 C-13.592 23.374 -12.297 21.187 -11 19 C-10.071 17.417 -9.142 15.834 -8.215 14.25 C-6.473 11.28 -4.724 8.314 -2.969 5.352 C-1.936 3.593 -0.912 1.825 0 0 Z " fill="#B17760" transform="translate(225,391)"/>
<path d="M0 0 C0.66 0.66 1.32 1.32 2 2 C-3.718 13.081 -9.923 23.851 -16.25 34.594 C-18.835 38.987 -21.37 43.405 -23.875 47.844 C-24.503 48.948 -25.132 50.052 -25.779 51.19 C-26.99 53.32 -28.191 55.456 -29.381 57.597 C-29.928 58.554 -30.475 59.511 -31.039 60.496 C-31.516 61.344 -31.992 62.191 -32.483 63.064 C-34 65 -34 65 -36.185 65.781 C-36.784 65.854 -37.383 65.926 -38 66 C-39.034 63.254 -40.053 60.505 -41.062 57.75 C-41.357 56.973 -41.652 56.195 -41.955 55.395 C-42.229 54.64 -42.503 53.886 -42.785 53.109 C-43.042 52.418 -43.298 51.727 -43.563 51.015 C-44.07 48.68 -43.742 47.246 -43 45 C-40.528 47.963 -39.338 50.54 -38.312 54.25 C-38.061 55.142 -37.81 56.034 -37.551 56.953 C-37.369 57.629 -37.187 58.304 -37 59 C-36.34 59 -35.68 59 -35 59 C-34.732 58.443 -34.463 57.887 -34.187 57.313 C-32.897 54.799 -31.479 52.402 -30.016 49.984 C-29.417 48.992 -28.818 47.999 -28.2 46.976 C-27.557 45.911 -26.913 44.847 -26.25 43.75 C-20.262 33.818 -14.369 23.837 -8.569 13.794 C-5.845 9.092 -3.089 4.472 0 0 Z " fill="#B17760" transform="translate(236,356)"/>
<path d="M0 0 C0.833 0.002 1.665 0.004 2.523 0.007 C3.464 0.007 4.405 0.007 5.375 0.007 C6.398 0.012 7.42 0.017 8.474 0.023 C9.516 0.024 10.558 0.025 11.631 0.027 C14.974 0.033 18.316 0.045 21.658 0.058 C23.918 0.063 26.177 0.067 28.437 0.071 C33.99 0.082 39.543 0.099 45.095 0.12 C43.532 4.925 41.685 8.805 39.095 13.12 C38.105 12.79 37.115 12.46 36.095 12.12 C37.745 8.49 39.395 4.86 41.095 1.12 C38.936 1.229 38.936 1.229 36.732 1.339 C24.174 1.942 11.667 2.252 -0.905 2.12 C-1.025 2.687 -1.145 3.253 -1.27 3.836 C-2.586 9.909 -4.231 15.832 -6.002 21.788 C-7.433 27.071 -8.039 32.148 -8.221 37.612 C-8.263 38.811 -8.305 40.01 -8.348 41.245 C-8.387 42.483 -8.427 43.72 -8.467 44.995 C-8.51 46.256 -8.553 47.517 -8.598 48.816 C-8.704 51.917 -8.806 55.019 -8.905 58.12 C-9.565 58.12 -10.225 58.12 -10.905 58.12 C-15.114 39.096 -11.449 18.401 -2.905 1.12 C-1.905 0.12 -1.905 0.12 0 0 Z " fill="#B07761" transform="translate(201.90455627441406,339.87974548339844)"/>
<path d="M0 0 C7.221 0.418 14.046 0.955 21 3 C17.651 5.026 15.13 5.217 11.25 5.125 C10.265 5.107 9.28 5.089 8.266 5.07 C7.144 5.036 7.144 5.036 6 5 C13.013 18.173 20.139 31.232 27.948 43.954 C28.465 44.808 28.983 45.663 29.516 46.543 C29.972 47.286 30.429 48.028 30.899 48.794 C32.096 51.192 32.59 53.361 33 56 C32.01 56.495 32.01 56.495 31 57 C30.474 56.053 30.474 56.053 29.937 55.086 C16.147 29.929 16.147 29.929 1.321 5.384 C0 3 0 3 0 0 Z " fill="#B07760" transform="translate(289,291)"/>
<path d="M0 0 C2.823 2.497 4.805 5.159 6.812 8.312 C12.468 16.951 20.284 22.928 28.621 28.867 C34.675 33.347 38.987 37.576 41 45 C41.363 49.372 41.308 53.626 41 58 C38.495 55.495 38.437 53.885 37.75 50.438 C34.043 35.076 20.949 26.557 8.953 17.445 C3.513 13.144 0.27 7.881 -1 1 C-0.67 0.67 -0.34 0.34 0 0 Z " fill="#AF765F" transform="translate(418,362)"/>
<path d="M0 0 C3 1 3 1 4.075 2.978 C4.554 4.251 4.554 4.251 5.043 5.551 C5.394 6.477 5.746 7.403 6.107 8.357 C6.642 9.82 6.642 9.82 7.188 11.312 C7.74 12.758 7.74 12.758 8.303 14.232 C9.874 18.439 11 21.455 11 26 C3.41 26 -4.18 26 -12 26 C-13.32 22.7 -14.64 19.4 -16 16 C-15.34 14.68 -14.68 13.36 -14 12 C-13.326 13.267 -12.661 14.539 -12 15.812 C-11.443 16.874 -11.443 16.874 -10.875 17.957 C-10 20 -10 20 -10 23 C-4.72 23 0.56 23 6 23 C4.406 18.048 4.406 18.048 2.799 13.099 C1.413 8.73 0.521 4.555 0 0 Z " fill="#B17862" transform="translate(744,416)"/>
<path d="M0 0 C0.66 0.66 1.32 1.32 2 2 C0.108 5.502 -1.789 9.001 -3.688 12.5 C-4.218 13.482 -4.748 14.465 -5.295 15.477 C-8.356 21.111 -11.537 26.603 -15 32 C-19.228 30.862 -20.98 29.122 -23.234 25.398 C-23.57 24.813 -23.905 24.228 -24.25 23.625 C-24.776 22.759 -24.776 22.759 -25.312 21.875 C-27.03 18.982 -28.441 16.337 -29 13 C-28.01 12.67 -27.02 12.34 -26 12 C-25.446 12.927 -24.891 13.854 -24.32 14.809 C-23.589 16.018 -22.857 17.228 -22.125 18.438 C-21.76 19.049 -21.395 19.661 -21.02 20.291 C-19.078 23.715 -19.078 23.715 -16 26 C-15.348 24.877 -14.695 23.754 -14.023 22.598 C-5.031 7.178 -5.031 7.178 0 0 Z " fill="#B17760" transform="translate(354,342)"/>
<path d="M0 0 C7.59 0 15.18 0 23 0 C26 11 26 11 25 15 C21.502 11.198 21.832 9.825 21 4 C14.73 3.67 8.46 3.34 2 3 C2 12.57 2 22.14 2 32 C1.67 32 1.34 32 1 32 C0.67 28.04 0.34 24.08 0 20 C-0.33 20 -0.66 20 -1 20 C-1.027 17.417 -1.047 14.833 -1.062 12.25 C-1.071 11.52 -1.079 10.791 -1.088 10.039 C-1.104 6.443 -0.879 3.515 0 0 Z " fill="#B2775F" transform="translate(870,323)"/>
<path d="M0 0 C8.25 0 16.5 0 25 0 C24.67 0.99 24.34 1.98 24 3 C17.07 3 10.14 3 3 3 C2.057 8.698 2.057 8.698 1.115 14.397 C0.471 18.279 -0.192 22.148 -1 26 C-1.99 26.33 -2.98 26.66 -4 27 C-3.436 17.814 -1.773 9.018 0 0 Z " fill="#B27860" transform="translate(1168,323)"/>
<path d="M0 0 C0.33 0 0.66 0 1 0 C1 1.98 1 3.96 1 6 C1.66 6 2.32 6 3 6 C3.364 7.52 3.364 7.52 3.734 9.07 C4.072 10.422 4.411 11.774 4.75 13.125 C4.986 14.123 4.986 14.123 5.227 15.141 C7.024 22.192 10.088 26.821 16.25 30.875 C17.142 31.471 18.034 32.066 18.953 32.68 C19.629 33.115 20.304 33.551 21 34 C19.68 34.66 18.36 35.32 17 36 C8.381 30.422 3.139 23.617 0.457 13.641 C-0.33 9.094 -0.236 4.595 0 0 Z " fill="#B17861" transform="translate(760,406)"/>
<path d="M0 0 C0.66 0 1.32 0 2 0 C2.205 0.71 2.41 1.421 2.621 2.152 C2.891 3.071 3.16 3.991 3.438 4.938 C3.704 5.854 3.971 6.771 4.246 7.715 C4.79 9.94 4.79 9.94 6 11 C8.526 11.237 11.031 11.422 13.562 11.562 C14.273 11.606 14.984 11.649 15.717 11.693 C17.478 11.8 19.239 11.9 21 12 C21.33 9.69 21.66 7.38 22 5 C22.33 5 22.66 5 23 5 C23 7.97 23 10.94 23 14 C16.07 14 9.14 14 2 14 C1.34 9.38 0.68 4.76 0 0 Z " fill="#B67B64" transform="translate(1194,428)"/>
<path d="M0 0 C-0.33 0.66 -0.66 1.32 -1 2 C-3.285 2.633 -3.285 2.633 -6.062 3.125 C-6.982 3.293 -7.901 3.46 -8.848 3.633 C-9.558 3.754 -10.268 3.875 -11 4 C-10.977 4.675 -10.954 5.351 -10.93 6.047 C-10.912 6.939 -10.894 7.831 -10.875 8.75 C-10.852 9.632 -10.829 10.513 -10.805 11.422 C-11.009 14.114 -11.634 15.699 -13 18 C-14.141 14.578 -14.098 11.913 -14.062 8.312 C-14.053 7.133 -14.044 5.954 -14.035 4.738 C-14.024 3.835 -14.012 2.931 -14 2 C-12.232 1.469 -10.461 0.95 -8.688 0.438 C-7.701 0.147 -6.715 -0.143 -5.699 -0.441 C-3 -1 -3 -1 0 0 Z " fill="#B0765F" transform="translate(430,404)"/>
<path d="M0 0 C0.33 0 0.66 0 1 0 C1 2.97 1 5.94 1 9 C-1.228 9.506 -3.457 10.005 -5.688 10.5 C-6.929 10.778 -8.17 11.057 -9.449 11.344 C-12.424 11.894 -14.994 12.138 -18 12 C-18.33 10.35 -18.66 8.7 -19 7 C-18.072 7.206 -17.144 7.413 -16.188 7.625 C-11.002 8.404 -6.06 7.107 -1 6 C-0.67 4.02 -0.34 2.04 0 0 Z " fill="#B67F68" transform="translate(820,346)"/>
<path d="M0 0 C2.745 2.383 3.891 4.689 5.188 8.062 C5.532 8.94 5.876 9.818 6.23 10.723 C7 13 7 13 7 15 C10.63 15.33 14.26 15.66 18 16 C18 16.33 18 16.66 18 17 C13.71 17 9.42 17 5 17 C2.149 11.677 0.146 6.94 -1 1 C-0.67 0.67 -0.34 0.34 0 0 Z " fill="#B57D66" transform="translate(648,424)"/>
<path d="M0 0 C0.99 0 1.98 0 3 0 C4.062 1.812 4.062 1.812 5 4 C4.67 4.99 4.34 5.98 4 7 C1.5 4.826 0.564 3.27 0 0 Z M8.723 5.902 C10.376 5.92 10.376 5.92 12.062 5.938 C13.72 5.951 13.72 5.951 15.41 5.965 C16.265 5.976 17.119 5.988 18 6 C18 6.99 18 7.98 18 9 C14.446 10.185 11.73 10.266 8 10 C6.062 8.5 6.062 8.5 5 7 C6 6 6 6 8.723 5.902 Z " fill="#AE755E" transform="translate(436,418)"/>
<path d="M0 0 C0.99 0.495 0.99 0.495 2 1 C3.158 4.473 3.069 7.361 3 11 C2.67 11 2.34 11 2 11 C1.67 17.6 1.34 24.2 1 31 C0.67 31 0.34 31 0 31 C0 20.77 0 10.54 0 0 Z " fill="#D9B8AB" transform="translate(886,364)"/>
<path d="M0 0 C1.32 0 2.64 0 4 0 C2.587 4.827 0.57 8.716 -2 13 C-2.99 12.67 -3.98 12.34 -5 12 C-3.35 8.04 -1.7 4.08 0 0 Z " fill="#AD745D" transform="translate(243,340)"/>
<path d="M0 0 C3.61 1.417 4.818 2.851 6.375 6.375 C6.733 7.146 7.092 7.917 7.461 8.711 C8 11 8 11 7.102 13.289 C6.738 13.854 6.375 14.418 6 15 C4.998 12.688 3.998 10.376 3 8.062 C2.714 7.403 2.428 6.744 2.133 6.064 C0 1.113 0 1.113 0 0 Z " fill="#B77F67" transform="translate(640,409)"/>
<path d="M0 0 C1.32 0.33 2.64 0.66 4 1 C4.33 2.65 4.66 4.3 5 6 C3.35 6 1.7 6 0 6 C0 4.02 0 2.04 0 0 Z " fill="#B37B63" transform="translate(270,468)"/>
<path d="M0 0 C0.33 0 0.66 0 1 0 C1 4.29 1 8.58 1 13 C0.01 13.33 -0.98 13.66 -2 14 C-1.036 4.59 -1.036 4.59 0 0 Z " fill="#E8D7D1" transform="translate(933,365)"/>
<path d="M0 0 C0.99 0 1.98 0 3 0 C4.062 1.812 4.062 1.812 5 4 C4.67 4.99 4.34 5.98 4 7 C1.5 4.826 0.564 3.27 0 0 Z " fill="#B37C66" transform="translate(436,418)"/>
<path d="M0 0 C1.98 0.99 1.98 0.99 4 2 C2.68 2.33 1.36 2.66 0 3 C0 2.01 0 1.02 0 0 Z " fill="#B8826C" transform="translate(312,295)"/>
<path d="M0 0 C0.66 0.66 1.32 1.32 2 2 C1.34 2.66 0.68 3.32 0 4 C0 2.68 0 1.36 0 0 Z " fill="#B17862" transform="translate(456,421)"/>
</svg>